
        <svg xmlns="http://www.w3.org/2000/svg" xmlns:xlink="http://www.w3.org/1999/xlink" version="1.1" width="3187.5" height="1125" viewBox="0 0 3187.5 1125">
			
			<g transform="scale(9.375) translate(10, 10)">
				<defs id="SvgjsDefs2070"/><g id="SvgjsG2071" featureKey="symbolFeature-0" transform="matrix(1,0,0,1,0,0)" fill="#000"><title xmlns="http://www.w3.org/2000/svg">Artboard 1 copy 10</title><g xmlns="http://www.w3.org/2000/svg" data-name="Layer 2"><path d="M50,0a50,50,0,1,0,50,50A50,50,0,0,0,50,0Zm0,1A49.05,49.05,0,0,1,99,50c0,.24,0,.48,0,.72l-5-4.23-.13-.08a89.16,89.16,0,0,0-14.61-3.29c-4.81-.62-7.52-2.14-11.62-4.43-2.32-1.3-5-2.77-8.61-4.46a51.39,51.39,0,0,1-8.14-4.44c-1.19-.81-1.43-.9-2.8-.55-.85.22-5,2.11-12.14,5.43C24.64,39.89,6.56,48.16,1,49.65A49,49,0,0,1,50,1ZM13.12,82.21a49.81,49.81,0,0,1-3.12-4c2.27-1.1,8.6-4.62,14.51-7.87,4.55-2.49,8.87-4.86,11.1-6a17.46,17.46,0,0,0,.73,4.06c-1.67.76-6.64,3.74-16.06,9.45-2.85,1.73-5.43,3.29-7.11,4.29ZM7.34,74.06c2.6-1.51,20.71-11.74,28.11-15.56,0,1.56.09,2.63.1,2.79s0,.39,0,.68,0,.79,0,1.29c-2.09,1.07-6.68,3.59-11.53,6.25-6,3.31-12.52,6.92-14.61,7.92C8.68,76.34,8,75.21,7.34,74.06ZM5,69.44a.46.46,0,0,0,.27.09.59.59,0,0,0,.23,0c3.86-2,11.36-6.08,18-9.72,5.09-2.81,9.94-5.48,11.93-6.49,0,1.48,0,2.9,0,4.12C28.31,61,9.56,71.62,6.84,73.19,6.19,72,5.59,70.72,5,69.44ZM4.82,69c-.58-1.38-1.1-2.79-1.55-4.22C7.17,62.9,31,50.61,35.72,48.22c-.13,1.26-.2,2.6-.25,3.92-1.62.78-6.66,3.55-12.45,6.74-6.6,3.64-14.09,7.76-17.94,9.7A.49.49,0,0,0,4.82,69ZM35.86,47C33.24,48.36,7.48,61.62,3,63.76c-.37-1.27-.71-2.56-1-3.87C3.83,59,29.89,46.5,36.61,43.53A18.13,18.13,0,0,0,35.86,47Zm-34,11.84c-.2-1.08-.36-2.17-.49-3.27,9.28-4.08,32.72-14.91,40.13-18.53-1.59,1.86-3.11,3.69-4.13,5.06C33.09,43.86,5.35,57.18,1.82,58.87Zm-.6-4.32C1.1,53.27,1,52,1,50.68c5.35-1.34,23.16-9.48,35.32-15.1,4.7-2.17,8.89-4.11,10.87-4.94-1,1.1-2.47,2.69-4,4.41h0C41,36.43,12.16,49.74,1.22,54.55ZM13.78,83c1.68-1,4.22-2.53,7-4.23,5.63-3.42,13.91-8.44,15.87-9.37A10.08,10.08,0,0,0,39.07,73c-1.44.62-6.08,3.48-13.22,7.91C22.41,83,19.16,85,17.08,86.24h0A46.42,46.42,0,0,1,13.78,83ZM45.92,98.82A48.6,48.6,0,0,1,35.2,96.71c3.22-1.64,7.52-4.37,9.47-5.61l.16-.1a11.65,11.65,0,0,0,.67,2.7A5.87,5.87,0,0,1,45.9,95,19.14,19.14,0,0,1,45.92,98.82Zm-1.79-8.56a112.19,112.19,0,0,1-10.28,6A48,48,0,0,1,28.37,94c2.34-1.4,5.82-3.37,8.93-5.13,2.74-1.56,5.16-2.93,6.41-3.69.33,1.6.61,3.13.85,4.43,0,.14,0,.25.07.38ZM36.8,88c-3.26,1.84-6.95,3.94-9.3,5.35a.58.58,0,0,0-.14.13,47.12,47.12,0,0,1-4.75-2.82c1.65-1,3.82-2.3,6.13-3.7,5-3,11.74-7.13,13.44-7.9.5,1.61.93,3.37,1.31,5.09C42.39,84.77,39.79,86.25,36.8,88Zm-8.58-1.9C25.73,87.56,23.41,89,21.72,90c-1.34-1-2.63-2-3.86-3,2.09-1.24,5.21-3.18,8.51-5.23C31.91,78.27,38.81,74,39.61,73.8a.48.48,0,0,0,.18-.07,15.06,15.06,0,0,1,2.09,4.33C40.23,78.79,35.28,81.77,28.22,86.05ZM50,99c-1,0-2.08,0-3.11-.11a20.87,20.87,0,0,0,0-4,6.77,6.77,0,0,0-.52-1.7,21.53,21.53,0,0,1-.7-3.13h0c0-.24-.09-.48-.13-.72-.28-1.5-.61-3.28-1-5.13v0c-1-4.76-2.5-10-4.67-11.9-2.73-2.45-3.22-6.27-3.3-8.8h0c0-.6,0-1.13,0-1.55s0-.57,0-.74c-.23-4.25-.4-15.84,1.5-18.4C40.89,39,47.84,31.31,49.16,30.05c.31,0,.55.17,1.14.57a51.89,51.89,0,0,0,8.28,4.51c3.63,1.68,6.24,3.14,8.54,4.43,4.2,2.35,7,3.9,12,4.55a86.52,86.52,0,0,1,14.35,3.23L99,52A49.05,49.05,0,0,1,50,99Z"/></g></g><g id="SvgjsG2072" featureKey="nameFeature-0" transform="matrix(1.8587360858383475,0,0,1.8587360858383475,116.28252782832331,5.873605038577013)" fill="#000"><path d="M2 40 l0 -32 l6 0 c6 0 6 4.4 6 15.16 c0 12.4 0 16.84 -6 16.84 l-6 0 z M6 36 l2 0 c2.24 0 2.24 -1.68 2.24 -12.84 c0 -10 0 -11.96 -2.24 -11.96 l-2 0 l0 24.8 z M17.4 23.16 l0 -15.16 l4 0 l0 15.16 c0 11.56 0 13.24 2 13.24 s2 -1.68 2 -13.24 l0 -15.16 l4 0 l0 15.16 c0 12.8 0 17.24 -6 17.24 s-6 -4.44 -6 -17.24 z M33.2 40 l0 -32 l3.6 0 l5.24 19.6 l-0.04 -0.4 l0 -19.2 l4 0 l0 32 l-3.6 0 l-5.24 -17.6 l0.04 0.4 l0 17.2 l-4 0 z M50 40 l0 -32 l9.2 0 l0 3.2 l-5.2 0 l0 10.4 l4.4 0 l0 3.2 l-4.4 0 l0 11.2 l5.2 0 l0 4 l-9.2 0 z M62 40 l0 -32 l6.48 0 c4.12 0 5.52 2.52 5.52 7.36 c0 4.36 -0.52 6.84 -1.76 8.04 l0 0.24 c1.04 0.36 1.36 2.24 1.76 6.92 l0.8 9.44 l-4 0 l-0.52 -9.44 c-0.28 -4.76 -1 -5.76 -2.2 -5.76 l-2.08 0 l0 15.2 l-4 0 z M66 21.6 l2.48 0 c1.4 0 1.8 -1.4 1.8 -6.24 c0 -3.16 -0.6 -4.16 -1.8 -4.16 l-2.48 0 l0 10.4 z M78 40 l0 -32 l4 0 l0 32 l-4 0 z M85.2 30.240000000000002 l4.04 0 c0.08 5.16 0.48 6.16 1.92 6.16 c1.96 0 1.96 -1.64 1.96 -6 c0 -6.4 -7.92 -4.68 -7.92 -13.2 c0 -5 0 -9.6 6 -9.6 c4.44 0 5.64 2.52 5.92 8.56 l-4 0 c-0.16 -4.36 -0.64 -5.36 -1.92 -5.36 c-1.96 0 -1.96 2.16 -1.96 6.4 c0 6.2 7.96 4 7.96 13.2 c0 5.6 0 10 -6.04 10 c-4.64 0 -5.72 -2.76 -5.96 -10.16 z M100.4 40 l0 -32 l9.2 0 l0 3.2 l-5.2 0 l0 10.4 l4.4 0 l0 3.2 l-4.4 0 l0 11.2 l5.2 0 l0 4 l-9.2 0 z"/></g>
			</g>
		</svg>
	